<svg width="24" height="24" viewBox="0 0 24 24" fill="none" xmlns="http://www.w3.org/2000/svg">
<path d="M12.1009 2.84555C-6.22798 4.44647 -0.106939 13.7596 6.93044 17.8536C14.0877 22.0182 17.4191 22.7823 21.5597 16.3274C21.5576 16.3274 30.4297 1.24463 12.1009 2.84555ZM7.51706 11.721C7.51706 11.1298 8.00306 10.6452 8.59611 10.6452H14.0192C14.6122 10.6452 15.0982 11.1298 15.0982 11.721C15.0982 12.3123 14.6122 12.7969 14.0192 12.7969H8.59611C8.00306 12.799 7.51706 12.3145 7.51706 11.721ZM17.4126 15.8728H10.1119C9.51887 15.8728 9.03287 15.3882 9.03287 14.7969C9.03287 14.2057 9.51887 13.7211 10.1119 13.7211H17.4126C18.0057 13.7211 18.4917 14.2057 18.4917 14.7969C18.4917 15.3882 18.0057 15.8728 17.4126 15.8728ZM17.4126 9.7231H6.82339C6.23034 9.7231 5.74434 9.23856 5.74434 8.64728C5.74434 8.05601 6.23034 7.57146 6.82339 7.57146H17.4126C18.0057 7.57146 18.4917 8.05601 18.4917 8.64728C18.4917 9.23856 18.0057 9.7231 17.4126 9.7231Z" fill="#111213"/>
</svg>
